<svg width="299" height="299" viewBox="0 0 299 299" fill="none" xmlns="http://www.w3.org/2000/svg">
<path d="M0.5 40C0.5 17.9086 18.4086 0 40.5 0H258.5C280.591 0 298.5 17.9086 298.5 40V259C298.5 281.091 280.591 299 258.5 299H40.5C18.4086 299 0.5 281.091 0.5 259V40Z" fill="#FADBB5"/>
<path d="M77.4838 207.861H55.2115C54.709 207.86 54.2124 207.968 53.7564 208.179C53.3003 208.389 52.8958 208.696 52.5712 209.079C51.7497 208.928 50.9042 208.974 50.1039 209.213C49.3036 209.451 48.5715 209.876 47.9676 210.452C47.3637 211.027 46.9052 211.737 46.6299 212.524C46.3545 213.311 46.2701 214.151 46.3835 214.977C46.4969 215.803 46.805 216.59 47.2824 217.273C47.7598 217.957 48.3929 218.518 49.1298 218.91C49.8667 219.303 50.6863 219.515 51.5215 219.53C52.3566 219.545 53.1834 219.362 53.9339 218.997L56.5358 240.796C56.7547 241.506 57.1958 242.127 57.7945 242.568C58.3932 243.009 59.1179 243.247 59.8622 243.247H74.3428C75.087 243.247 75.8117 243.009 76.4103 242.568C77.0089 242.127 77.45 241.506 77.6688 240.796L80.8102 212.354C80.9703 211.835 81.006 211.285 80.9145 210.75C80.823 210.214 80.6068 209.707 80.2832 209.27C79.9596 208.833 79.5378 208.478 79.0516 208.233C78.5654 207.989 78.0284 207.861 77.4838 207.861ZM51.6316 218.025C50.6308 218.025 49.6711 217.629 48.9634 216.923C48.2558 216.217 47.8582 215.259 47.8582 214.261C47.8582 213.262 48.2558 212.305 48.9634 211.599C49.6711 210.893 50.6308 210.496 51.6316 210.496C51.7005 210.496 51.7646 210.513 51.8328 210.516C51.6827 211.122 51.7009 211.758 51.8855 212.354L53.4792 217.523C52.9177 217.848 52.2808 218.021 51.6316 218.025Z" fill="white"/>
<path d="M136.586 200.277L121.919 144.951L120.671 140.254C120.394 139.214 120.715 138.106 121.505 137.375C121.71 137.185 121.941 137.026 122.192 136.902L147.822 124.234C148.694 123.803 149.657 123.591 150.63 123.615L186.843 124.515C187.744 124.537 188.627 124.762 189.429 125.172L207.931 134.648C209.907 135.661 211.163 137.682 211.195 139.903L211.267 144.951L212.389 222.281C212.396 222.721 212.451 223.16 212.553 223.588L215.207 234.693C216.108 238.465 213.249 242.088 209.371 242.088H140.49C136.672 242.088 133.825 238.568 134.623 234.834L139.287 213.002C139.484 212.079 139.461 211.123 139.219 210.211L136.586 200.277Z" fill="#F3A447"/>
<path d="M228.701 232.948C229.409 236.652 226.573 240.088 222.802 240.088H213.433C210.438 240.088 207.902 237.879 207.49 234.913L202.241 197.099C202.195 196.767 202.177 196.432 202.186 196.098L203.752 142.951L203.878 138.735C203.931 136.953 205.258 135.467 207.023 135.213C207.97 135.076 208.939 135.308 209.69 135.901C212.227 137.901 214.135 139.988 215.76 142.951C218.41 147.552 220.617 154.122 220.136 162.933C220.124 163.149 220.122 163.362 220.131 163.579C220.208 165.398 220.564 174.582 220.14 180.915C219.848 185.268 224.414 210.521 228.701 232.948Z" fill="#F3A447"/>
<path d="M136.663 199.724L136.587 200.277L130.785 242.088H105.642C107.658 218.397 110.028 188.779 109.71 184.033C109.238 176.981 109.734 166.377 109.734 166.377C109.132 156.655 111.803 149.644 114.768 144.951C116.26 142.565 118.098 140.413 120.221 138.564C120.692 138.151 121.188 137.768 121.707 137.417L125.881 138.769L126.971 144.951L136.663 199.724Z" fill="#F3A447"/>
<path d="M139.561 93.2217C139.561 98.5645 141.149 103.787 144.125 108.23C147.1 112.672 151.329 116.134 156.276 118.179C161.224 120.224 166.668 120.759 171.921 119.716C177.173 118.674 181.998 116.101 185.785 112.323C189.572 108.545 192.151 103.732 193.195 98.4918C194.24 93.2517 193.704 87.8202 191.654 82.8841C189.605 77.948 186.135 73.7291 181.682 70.7608C177.229 67.7925 171.994 66.2082 166.638 66.2082C159.475 66.1904 152.598 69.0122 147.52 74.053C142.442 79.0938 139.579 85.9406 139.561 93.0871C139.561 93.132 139.561 93.1769 139.561 93.2217Z" fill="#FFC9C9"/>
<path d="M253.126 237.78C253.126 239.322 252.512 240.8 251.42 241.891C250.327 242.981 248.845 243.593 247.299 243.593H91.4171C89.8716 243.593 88.3894 242.981 87.2965 241.891C86.2036 240.8 85.5897 239.322 85.5897 237.78C85.5897 236.238 86.2036 234.759 87.2965 233.669C88.3893 232.578 89.8716 231.966 91.4171 231.966H93.1473C93.0483 231.62 92.9968 231.262 92.9941 230.901V151.506C92.9941 150.167 93.5274 148.882 94.4765 147.935C95.4256 146.989 96.7129 146.457 98.0552 146.457H240.661C242.003 146.457 243.291 146.989 244.24 147.935C245.189 148.882 245.722 150.167 245.722 151.506V230.901C245.722 231.262 245.671 231.62 245.569 231.966H247.299C248.064 231.966 248.822 232.116 249.529 232.409C250.236 232.701 250.878 233.129 251.42 233.669C251.961 234.209 252.39 234.85 252.683 235.555C252.976 236.26 253.126 237.016 253.126 237.78Z" fill="#B1650C"/>
<path d="M197.31 70.7824C195.127 69.1009 193.353 66.9498 192.119 64.4892C191.678 63.554 191.071 62.7067 190.326 61.9887L185.206 65.917L188.335 60.4801C180.321 55.6476 164.673 58.2142 164.673 58.2142C148.395 49.5664 142.417 60.3613 140.333 67.2073C139.508 69.6847 138.052 71.9061 136.109 73.6543C132.093 77.4741 138.417 84.904 138.417 84.904V85.4291L139.926 95.6564C139.926 95.6564 141.435 88.8803 145.418 84.1187C147.929 81.1166 152.017 79.3317 153.915 79.3686C178.414 79.8456 183.052 80.8134 183.052 80.8134C183.052 80.8134 187.2 83.0364 189.032 83.9702C194.951 86.9879 193.507 97.9151 193.507 97.9151L197.931 78.5212C198.952 73.8201 198.385 71.6631 197.31 70.7824Z" fill="#2F2E41"/>
</svg>
