<svg width="299" height="299" viewBox="0 0 299 299" fill="none" xmlns="http://www.w3.org/2000/svg">
<rect width="299" height="299" fill="#E5E5E5"/>
<g clip-path="url(#clip0_0_1)" filter="url(#filter0_dddddd_0_1)">
<rect width="1440" height="3139" transform="translate(-802 -2082)" fill="#F8FAFB"/>
<g clip-path="url(#clip1_0_1)">
<rect x="-802" y="-1279" width="1440" height="2100" fill="white"/>
<rect x="0.5" width="298" height="299" rx="40" fill="#B1F1D7"/>
<path d="M179.654 241.248L174.984 239.269L171.78 215.706H129.12L125.648 239.172L121.47 241.275C121.27 241.376 121.11 241.541 121.015 241.745C120.92 241.949 120.897 242.179 120.948 242.398C120.999 242.617 121.123 242.812 121.298 242.951C121.473 243.091 121.69 243.167 121.914 243.167H179.269C179.498 243.167 179.72 243.087 179.897 242.941C180.074 242.795 180.196 242.592 180.241 242.366C180.287 242.14 180.253 241.905 180.146 241.701C180.039 241.497 179.865 241.337 179.654 241.248Z" fill="#AEAEAE"/>
<path d="M255.449 218.094H45.89C44.7906 218.091 43.7369 217.65 42.9603 216.866C42.1837 216.083 41.7476 215.021 41.7476 213.915V184.172H259.592V213.915C259.592 215.021 259.156 216.083 258.379 216.866C257.602 217.65 256.549 218.091 255.449 218.094Z" fill="#CCCCCC"/>
<path d="M259.811 198.229H41.5561V70.9663C41.5576 69.6307 42.0854 68.3503 43.0237 67.406C43.962 66.4616 45.2342 65.9304 46.5611 65.9289H254.806C256.132 65.9304 257.405 66.4616 258.343 67.4059C259.281 68.3503 259.809 69.6307 259.811 70.9663V198.229Z" fill="#3F3D56"/>
<path d="M246.775 188.992H54.5917C53.5688 188.991 52.588 188.582 51.8646 187.854C51.1413 187.126 50.7344 186.139 50.7332 185.109V79.0491C50.7344 78.0194 51.1413 77.0323 51.8646 76.3042C52.588 75.5761 53.5687 75.1665 54.5917 75.1653H246.775C247.798 75.1665 248.779 75.5761 249.502 76.3042C250.226 77.0323 250.633 78.0194 250.634 79.0491V185.109C250.633 186.139 250.226 187.126 249.502 187.854C248.779 188.582 247.798 188.991 246.775 188.992Z" fill="white"/>
<path d="M84.2418 108.769H73.6811V109.735H84.2418V108.769Z" fill="#3BDC9C"/>
<path d="M92.2424 112.312H73.6811V113.278H92.2424V112.312Z" fill="#E6E6E6"/>
<path d="M92.2424 115.533H73.6811V116.499H92.2424V115.533Z" fill="#E6E6E6"/>
<path d="M71.761 108.769H63.7604V116.821H71.761V108.769Z" fill="#3BDC9C"/>
<path d="M84.2418 129.383H73.6811V130.349H84.2418V129.383Z" fill="#3BDC9C"/>
<path d="M92.2424 132.927H73.6811V133.893H92.2424V132.927Z" fill="#E6E6E6"/>
<path d="M92.2424 136.469H73.6811V137.435H92.2424V136.469Z" fill="#E6E6E6"/>
<path d="M71.761 129.383H63.7604V137.435H71.761V129.383Z" fill="#3BDC9C"/>
<path d="M84.2418 150.32H73.6811V151.286H84.2418V150.32Z" fill="#3BDC9C"/>
<path d="M92.2424 153.541H73.6811V154.829H92.2424V153.541Z" fill="#E6E6E6"/>
<path d="M92.2424 157.084H73.6811V158.05H92.2424V157.084Z" fill="#E6E6E6"/>
<path d="M71.761 150.32H63.7604V158.05H71.761V150.32Z" fill="#3BDC9C"/>
<path d="M141.89 133.813H141.587V134.726H141.89V133.813Z" fill="#E5E5E5"/>
<path d="M141.89 154.178H141.587V152.233H141.89V154.178ZM141.89 150.288H141.587V148.342H141.89V150.288ZM141.89 146.397H141.587V144.452H141.89V146.397ZM141.89 142.507H141.587V140.561H141.89V142.507ZM141.89 138.616H141.587V136.671H141.89V138.616Z" fill="#E5E5E5"/>
<path d="M141.89 156.123H141.587V157.036H141.89V156.123Z" fill="#E5E5E5"/>
<path d="M174.997 133.813H174.695V134.726H174.997V133.813Z" fill="#E5E5E5"/>
<path d="M174.997 154.178H174.695V152.233H174.997V154.178ZM174.997 150.288H174.695V148.342H174.997V150.288ZM174.997 146.397H174.695V144.452H174.997V146.397ZM174.997 142.507H174.695V140.561H174.997V142.507ZM174.997 138.616H174.695V136.671H174.997V138.616Z" fill="#E5E5E5"/>
<path d="M174.997 156.123H174.695V157.036H174.997V156.123Z" fill="#E5E5E5"/>
<path d="M191.698 115.953H191.395V116.866H191.698V115.953Z" fill="#E5E5E5"/>
<path d="M191.698 154.254H191.395V152.384H191.698V154.254ZM191.698 150.515H191.395V148.645H191.698V150.515ZM191.698 146.776H191.395V144.907H191.698V146.776ZM191.698 143.037H191.395V141.168H191.698V143.037ZM191.698 139.299H191.395V137.429H191.698V139.299ZM191.698 135.56H191.395V133.691H191.698V135.56ZM191.698 131.821H191.395V129.952H191.698V131.821ZM191.698 128.082H191.395V126.213H191.698V128.082ZM191.698 124.344H191.395V122.474H191.698V124.344ZM191.698 120.605H191.395V118.736H191.698V120.605Z" fill="#E5E5E5"/>
<path d="M191.698 156.123H191.395V157.036H191.698V156.123Z" fill="#E5E5E5"/>
<path d="M208.232 108.65H207.929V109.563H208.232V108.65Z" fill="#E5E5E5"/>
<path d="M208.232 154.261H207.929V152.398H208.232V154.261ZM208.232 150.536H207.929V148.674H208.232V150.536ZM208.232 146.811H207.929V144.949H208.232V146.811ZM208.232 143.086H207.929V141.224H208.232V143.086ZM208.232 139.361H207.929V137.499H208.232V139.361ZM208.232 135.637H207.929V133.774H208.232V135.637ZM208.232 131.912H207.929V130.049H208.232V131.912ZM208.232 128.187H207.929V126.324H208.232V128.187ZM208.232 124.462H207.929V122.6H208.232V124.462ZM208.232 120.737H207.929V118.875H208.232V120.737ZM208.232 117.012H207.929V115.15H208.232V117.012ZM208.232 113.287H207.929V111.425H208.232V113.287Z" fill="#E5E5E5"/>
<path d="M208.232 156.123H207.929V157.036H208.232V156.123Z" fill="#E5E5E5"/>
<path d="M158.519 121.583H158.216V122.496H158.519V121.583Z" fill="#E5E5E5"/>
<path d="M158.519 154.353H158.216V152.584H158.519V154.353ZM158.519 150.814H158.216V149.044H158.519V150.814ZM158.519 147.274H158.216V145.504H158.519V147.274ZM158.519 143.734H158.216V141.964H158.519V143.734ZM158.519 140.195H158.216V138.425H158.519V140.195ZM158.519 136.655H158.216V134.885H158.519V136.655ZM158.519 133.115H158.216V131.345H158.519V133.115ZM158.519 129.576H158.216V127.806H158.519V129.576ZM158.519 126.036H158.216V124.266H158.519V126.036Z" fill="#E5E5E5"/>
<path d="M158.519 156.123H158.216V157.036H158.519V156.123Z" fill="#E5E5E5"/>
<path d="M225.001 157.46H124.904C124.821 157.46 124.741 157.427 124.683 157.368C124.624 157.309 124.591 157.228 124.591 157.145V108.856C124.591 108.773 124.624 108.692 124.683 108.633C124.741 108.574 124.821 108.541 124.904 108.541C124.987 108.541 125.067 108.574 125.126 108.633C125.184 108.692 125.217 108.773 125.217 108.856V156.83H225.001C225.084 156.83 225.164 156.863 225.222 156.922C225.281 156.981 225.314 157.061 225.314 157.145C225.314 157.228 225.281 157.309 225.222 157.368C225.164 157.427 225.084 157.46 225.001 157.46V157.46Z" fill="#3F3D56"/>
<path d="M174.983 134.237L158.341 121.691L141.926 134.066L141.55 133.561L158.341 120.903L174.904 133.39L191.363 115.26L191.429 115.233L208.032 108.5L208.266 109.086L191.729 115.792L174.983 134.237Z" fill="#3F3D56"/>
<path d="M141.738 135.705C142.776 135.705 143.618 134.858 143.618 133.813C143.618 132.768 142.776 131.921 141.738 131.921C140.7 131.921 139.859 132.768 139.859 133.813C139.859 134.858 140.7 135.705 141.738 135.705Z" fill="#3BDC9C"/>
<path d="M158.341 123.409C159.379 123.409 160.221 122.562 160.221 121.517C160.221 120.472 159.379 119.625 158.341 119.625C157.303 119.625 156.461 120.472 156.461 121.517C156.461 122.562 157.303 123.409 158.341 123.409Z" fill="#3BDC9C"/>
<path d="M174.944 135.705C175.982 135.705 176.823 134.858 176.823 133.813C176.823 132.768 175.982 131.921 174.944 131.921C173.906 131.921 173.064 132.768 173.064 133.813C173.064 134.858 173.906 135.705 174.944 135.705Z" fill="#3BDC9C"/>
<path d="M191.546 117.418C192.584 117.418 193.426 116.571 193.426 115.526C193.426 114.481 192.584 113.634 191.546 113.634C190.508 113.634 189.667 114.481 189.667 115.526C189.667 116.571 190.508 117.418 191.546 117.418Z" fill="#3BDC9C"/>
<path d="M208.149 110.481C209.187 110.481 210.028 109.634 210.028 108.59C210.028 107.545 209.187 106.698 208.149 106.698C207.111 106.698 206.269 107.545 206.269 108.59C206.269 109.634 207.111 110.481 208.149 110.481Z" fill="#3BDC9C"/>
<path d="M105.77 75.1653H105.13V188.992H105.77V75.1653Z" fill="#E5E5E5"/>
</g>
</g>
<defs>
<filter id="filter0_dddddd_0_1" x="-882" y="-2082" width="1600" height="3319" filterUnits="userSpaceOnUse" color-interpolation-filters="sRGB">
<feFlood flood-opacity="0" result="BackgroundImageFix"/>
<feColorMatrix in="SourceAlpha" type="matrix" values="0 0 0 0 0 0 0 0 0 0 0 0 0 0 0 0 0 0 127 0" result="hardAlpha"/>
<feOffset dy="2.76726"/>
<feGaussianBlur stdDeviation="1.1069"/>
<feColorMatrix type="matrix" values="0 0 0 0 0 0 0 0 0 0 0 0 0 0 0 0 0 0 0.0196802 0"/>
<feBlend mode="normal" in2="BackgroundImageFix" result="effect1_dropShadow_0_1"/>
<feColorMatrix in="SourceAlpha" type="matrix" values="0 0 0 0 0 0 0 0 0 0 0 0 0 0 0 0 0 0 127 0" result="hardAlpha"/>
<feOffset dy="6.6501"/>
<feGaussianBlur stdDeviation="2.66004"/>
<feColorMatrix type="matrix" values="0 0 0 0 0 0 0 0 0 0 0 0 0 0 0 0 0 0 0.0282725 0"/>
<feBlend mode="normal" in2="effect1_dropShadow_0_1" result="effect2_dropShadow_0_1"/>
<feColorMatrix in="SourceAlpha" type="matrix" values="0 0 0 0 0 0 0 0 0 0 0 0 0 0 0 0 0 0 127 0" result="hardAlpha"/>
<feOffset dy="12.5216"/>
<feGaussianBlur stdDeviation="5.00862"/>
<feColorMatrix type="matrix" values="0 0 0 0 0 0 0 0 0 0 0 0 0 0 0 0 0 0 0.035 0"/>
<feBlend mode="normal" in2="effect2_dropShadow_0_1" result="effect3_dropShadow_0_1"/>
<feColorMatrix in="SourceAlpha" type="matrix" values="0 0 0 0 0 0 0 0 0 0 0 0 0 0 0 0 0 0 127 0" result="hardAlpha"/>
<feOffset dy="22.3363"/>
<feGaussianBlur stdDeviation="8.93452"/>
<feColorMatrix type="matrix" values="0 0 0 0 0 0 0 0 0 0 0 0 0 0 0 0 0 0 0.0417275 0"/>
<feBlend mode="normal" in2="effect3_dropShadow_0_1" result="effect4_dropShadow_0_1"/>
<feColorMatrix in="SourceAlpha" type="matrix" values="0 0 0 0 0 0 0 0 0 0 0 0 0 0 0 0 0 0 127 0" result="hardAlpha"/>
<feOffset dy="41.7776"/>
<feGaussianBlur stdDeviation="16.711"/>
<feColorMatrix type="matrix" values="0 0 0 0 0 0 0 0 0 0 0 0 0 0 0 0 0 0 0.0503198 0"/>
<feBlend mode="normal" in2="effect4_dropShadow_0_1" result="effect5_dropShadow_0_1"/>
<feColorMatrix in="SourceAlpha" type="matrix" values="0 0 0 0 0 0 0 0 0 0 0 0 0 0 0 0 0 0 127 0" result="hardAlpha"/>
<feOffset dy="100"/>
<feGaussianBlur stdDeviation="40"/>
<feColorMatrix type="matrix" values="0 0 0 0 0 0 0 0 0 0 0 0 0 0 0 0 0 0 0.07 0"/>
<feBlend mode="normal" in2="effect5_dropShadow_0_1" result="effect6_dropShadow_0_1"/>
<feBlend mode="normal" in="SourceGraphic" in2="effect6_dropShadow_0_1" result="shape"/>
</filter>
<clipPath id="clip0_0_1">
<rect width="1440" height="3139" fill="white" transform="translate(-802 -2082)"/>
</clipPath>
<clipPath id="clip1_0_1">
<rect width="1440" height="3139" fill="white" transform="translate(-802 -2082)"/>
</clipPath>
</defs>
</svg>
