<svg width="299" height="299" viewBox="0 0 299 299" fill="none" xmlns="http://www.w3.org/2000/svg">
<rect width="299" height="299" fill="#E5E5E5"/>
<g clip-path="url(#clip0_0_1)" filter="url(#filter0_dddddd_0_1)">
<rect width="1440" height="3139" transform="translate(-340 -1698)" fill="#F8FAFB"/>
<g clip-path="url(#clip1_0_1)">
<rect x="-340" y="-895" width="1440" height="2100" fill="white"/>
<rect x="0.5" width="298" height="299" rx="40" fill="#8EC7FB"/>
<path d="M176.319 271.919H171.608L169.367 244.959L176.32 244.96L176.319 271.919Z" fill="#9E616A"/>
<path d="M179.3 277.91L160.427 277.91V277.627C160.427 275.319 161.201 273.105 162.578 271.473C163.956 269.841 165.824 268.924 167.773 268.924H167.773L179.3 268.924L179.3 277.91Z" fill="#2F2E41"/>
<path d="M141.553 271.919H136.168L133.607 244.959L141.553 244.96L141.553 271.919Z" fill="#9E616A"/>
<path d="M143.54 277.91L124.667 277.91V277.627C124.667 275.319 125.441 273.105 126.818 271.473C128.196 269.841 130.064 268.924 132.013 268.924H132.013L143.54 268.924L143.54 277.91Z" fill="#2F2E41"/>
<path d="M126.653 123.648L118.763 122.142L116.214 127.211L88.7811 135.85L88.8553 136.318C88.0795 135.317 87.061 134.656 85.9539 134.434C84.8468 134.212 83.7113 134.442 82.7194 135.089C81.7274 135.735 80.9329 136.763 80.4562 138.018C79.9794 139.272 79.8463 140.684 80.0771 142.04C80.3078 143.396 80.8898 144.622 81.735 145.533C82.5801 146.444 83.6425 146.99 84.7612 147.089C85.8799 147.187 86.9942 146.833 87.9353 146.079C88.8765 145.325 89.5932 144.213 89.9772 142.911L123.199 134.351L126.653 123.648Z" fill="#9E616A"/>
<path d="M207.785 118.097C207.119 118.098 206.459 118.242 205.841 118.522L206.002 118.202L170.266 97.1788L165.393 106.143L202.548 124.914C202.683 126.059 203.105 127.136 203.764 128.016C204.423 128.896 205.29 129.541 206.263 129.874C207.235 130.208 208.271 130.215 209.247 129.896C210.224 129.576 211.098 128.944 211.767 128.074C212.435 127.203 212.869 126.132 213.017 124.989C213.165 123.845 213.02 122.677 212.6 121.625C212.18 120.573 211.502 119.68 210.648 119.055C209.795 118.429 208.8 118.096 207.785 118.097H207.785Z" fill="#9E616A"/>
<path d="M151.384 61.5323C152.765 51.4512 146.984 41.9527 138.472 40.3168C129.96 38.6809 121.939 45.527 120.558 55.6081C119.177 65.6891 124.957 75.1876 133.47 76.8235C141.982 78.4595 150.002 71.6133 151.384 61.5323Z" fill="#2F2E41"/>
<path d="M135.593 77.2085C141.079 77.2085 145.527 71.8439 145.527 65.2263C145.527 58.6088 141.079 53.2442 135.593 53.2442C130.107 53.2442 125.66 58.6088 125.66 65.2263C125.66 71.8439 130.107 77.2085 135.593 77.2085Z" fill="#A0616A"/>
<path d="M135.593 60.2337C141.628 60.2337 146.52 56.8809 146.52 52.7449C146.52 48.6089 141.628 45.256 135.593 45.256C129.559 45.256 124.667 48.6089 124.667 52.7449C124.667 56.8809 129.559 60.2337 135.593 60.2337Z" fill="#2F2E41"/>
<path d="M137.083 48.2515C140.649 48.2515 143.54 44.6751 143.54 40.2634C143.54 35.8517 140.649 32.2754 137.083 32.2754C133.517 32.2754 130.627 35.8517 130.627 40.2634C130.627 44.6751 133.517 48.2515 137.083 48.2515Z" fill="#2F2E41"/>
<path d="M131.189 94.4463L131.758 87.8586C131.901 86.2142 132.707 84.6923 134.085 83.7829C137.401 81.5938 143.736 78.1583 146.373 81.7966L168.191 126.746C168.191 126.746 181.754 132.552 181.274 154.722L180.626 261.885L165.247 263.915L155.907 180.365L147.47 266.927L129.565 266.252L131.176 209.226L139.713 153.946L139.632 135.603L135.871 128.2C135.871 128.2 128.983 124.868 128.791 115.452L128.64 102.217L131.189 94.4463Z" fill="#ECF5FF"/>
<path d="M144.533 85.1168C142.875 83.4786 144.479 80.8243 146.678 81.596C158.488 85.7395 178.069 93.4949 176.167 98.7844C173.46 106.311 168.386 108.688 168.386 108.688L148.762 99.5767L144.533 85.1168Z" fill="#ECF5FF"/>
<path d="M133.889 95.2496L131.301 92.1863C131.301 92.1863 110.661 124.337 116.903 127.929C123.144 131.521 128.385 129.635 128.385 129.635L138.573 108.898L133.889 95.2496Z" fill="#ECF5FF"/>
<path d="M93.2265 195.672C93.7973 199.105 97.1594 201.334 100.544 200.523L212.603 173.667C215.666 172.933 217.64 169.955 217.123 166.848L208.753 116.511C208.183 113.078 204.821 110.849 201.436 111.66L89.3775 138.516C86.3145 139.25 84.3405 142.227 84.8571 145.334L93.2265 195.672Z" fill="white"/>
<path d="M218.102 167.557C218.626 170.674 216.643 173.663 213.568 174.391L98.9447 201.544C95.5688 202.344 92.2202 200.122 91.6447 196.701L82.8851 144.625C82.3609 141.509 84.3438 138.52 87.4189 137.791L202.042 110.638C205.418 109.839 208.767 112.06 209.342 115.482L218.102 167.557ZM93.0056 194.28C93.5811 197.702 96.9297 199.923 100.306 199.124L211.528 172.776C214.603 172.048 216.586 169.059 216.062 165.942L207.981 117.902C207.406 114.481 204.057 112.259 200.681 113.059L89.4587 139.407C86.3836 140.135 84.4007 143.124 84.9249 146.24L93.0056 194.28Z" fill="#E4E4E4"/>
<path d="M199.16 130.827L98.6875 154.579L99.2104 157.682L199.683 133.929L199.16 130.827Z" fill="#E4E4E4"/>
<path d="M201.196 142.907L100.723 166.659L101.246 169.761L201.719 146.009L201.196 142.907Z" fill="#E4E4E4"/>
<path d="M203.244 155.056L102.771 178.809L103.294 181.911L203.767 158.159L203.244 155.056Z" fill="#E4E4E4"/>
<path d="M150.715 149.315L147.297 150.08C147.047 150.135 146.788 150.078 146.576 149.919C146.365 149.761 146.218 149.515 146.168 149.236L144.552 140.168C144.502 139.888 144.554 139.598 144.695 139.361C144.836 139.124 145.056 138.959 145.305 138.903L148.723 138.139C148.973 138.083 149.232 138.141 149.444 138.299C149.655 138.457 149.802 138.703 149.852 138.983L151.468 148.05C151.518 148.33 151.466 148.62 151.325 148.857C151.184 149.095 150.964 149.259 150.715 149.315Z" fill="#00A1FF"/>
<path d="M190.448 153.179L187.03 154.07C186.781 154.135 186.522 154.068 186.31 153.883C186.098 153.698 185.951 153.412 185.901 153.085L184.285 142.507C184.236 142.18 184.287 141.842 184.428 141.565C184.57 141.288 184.789 141.096 185.039 141.031L188.456 140.139C188.706 140.074 188.965 140.142 189.177 140.326C189.389 140.511 189.536 140.798 189.586 141.124L191.202 151.703C191.251 152.029 191.2 152.368 191.058 152.644C190.917 152.921 190.698 153.113 190.448 153.179Z" fill="#00A1FF"/>
</g>
</g>
<defs>
<filter id="filter0_dddddd_0_1" x="-420" y="-1698" width="1600" height="3319" filterUnits="userSpaceOnUse" color-interpolation-filters="sRGB">
<feFlood flood-opacity="0" result="BackgroundImageFix"/>
<feColorMatrix in="SourceAlpha" type="matrix" values="0 0 0 0 0 0 0 0 0 0 0 0 0 0 0 0 0 0 127 0" result="hardAlpha"/>
<feOffset dy="2.76726"/>
<feGaussianBlur stdDeviation="1.1069"/>
<feColorMatrix type="matrix" values="0 0 0 0 0 0 0 0 0 0 0 0 0 0 0 0 0 0 0.0196802 0"/>
<feBlend mode="normal" in2="BackgroundImageFix" result="effect1_dropShadow_0_1"/>
<feColorMatrix in="SourceAlpha" type="matrix" values="0 0 0 0 0 0 0 0 0 0 0 0 0 0 0 0 0 0 127 0" result="hardAlpha"/>
<feOffset dy="6.6501"/>
<feGaussianBlur stdDeviation="2.66004"/>
<feColorMatrix type="matrix" values="0 0 0 0 0 0 0 0 0 0 0 0 0 0 0 0 0 0 0.0282725 0"/>
<feBlend mode="normal" in2="effect1_dropShadow_0_1" result="effect2_dropShadow_0_1"/>
<feColorMatrix in="SourceAlpha" type="matrix" values="0 0 0 0 0 0 0 0 0 0 0 0 0 0 0 0 0 0 127 0" result="hardAlpha"/>
<feOffset dy="12.5216"/>
<feGaussianBlur stdDeviation="5.00862"/>
<feColorMatrix type="matrix" values="0 0 0 0 0 0 0 0 0 0 0 0 0 0 0 0 0 0 0.035 0"/>
<feBlend mode="normal" in2="effect2_dropShadow_0_1" result="effect3_dropShadow_0_1"/>
<feColorMatrix in="SourceAlpha" type="matrix" values="0 0 0 0 0 0 0 0 0 0 0 0 0 0 0 0 0 0 127 0" result="hardAlpha"/>
<feOffset dy="22.3363"/>
<feGaussianBlur stdDeviation="8.93452"/>
<feColorMatrix type="matrix" values="0 0 0 0 0 0 0 0 0 0 0 0 0 0 0 0 0 0 0.0417275 0"/>
<feBlend mode="normal" in2="effect3_dropShadow_0_1" result="effect4_dropShadow_0_1"/>
<feColorMatrix in="SourceAlpha" type="matrix" values="0 0 0 0 0 0 0 0 0 0 0 0 0 0 0 0 0 0 127 0" result="hardAlpha"/>
<feOffset dy="41.7776"/>
<feGaussianBlur stdDeviation="16.711"/>
<feColorMatrix type="matrix" values="0 0 0 0 0 0 0 0 0 0 0 0 0 0 0 0 0 0 0.0503198 0"/>
<feBlend mode="normal" in2="effect4_dropShadow_0_1" result="effect5_dropShadow_0_1"/>
<feColorMatrix in="SourceAlpha" type="matrix" values="0 0 0 0 0 0 0 0 0 0 0 0 0 0 0 0 0 0 127 0" result="hardAlpha"/>
<feOffset dy="100"/>
<feGaussianBlur stdDeviation="40"/>
<feColorMatrix type="matrix" values="0 0 0 0 0 0 0 0 0 0 0 0 0 0 0 0 0 0 0.07 0"/>
<feBlend mode="normal" in2="effect5_dropShadow_0_1" result="effect6_dropShadow_0_1"/>
<feBlend mode="normal" in="SourceGraphic" in2="effect6_dropShadow_0_1" result="shape"/>
</filter>
<clipPath id="clip0_0_1">
<rect width="1440" height="3139" fill="white" transform="translate(-340 -1698)"/>
</clipPath>
<clipPath id="clip1_0_1">
<rect width="1440" height="3139" fill="white" transform="translate(-340 -1698)"/>
</clipPath>
</defs>
</svg>
